M48
; DRILL file {KiCad 5.1.10} date Fri Aug 13 16:06:22 2021
; FORMAT={-:-/ absolute / inch / decimal}
; #@! TF.CreationDate,2021-08-13T16:06:22+12:00
; #@! TF.GenerationSoftware,Kicad,Pcbnew,5.1.10
FMAT,2
INCH
T1C0.0157
T2C0.0197
T3C0.0236
T4C0.0315
T5C0.0394
T6C0.0417
T7C0.0433
T8C0.0591
T9C0.1181
T10C0.1260
%
G90
G05
T1
X3.27Y-4.81
X3.27Y-4.91
X3.27Y-5.01
X3.27Y-5.11
X3.37Y-4.81
X3.37Y-4.91
X3.37Y-5.01
X3.37Y-5.11
X3.47Y-4.81
X3.47Y-4.91
X3.47Y-5.01
X3.47Y-5.11
X3.57Y-4.81
X3.57Y-4.91
X3.57Y-5.01
X3.57Y-5.11
X3.67Y-4.81
X3.67Y-4.91
X3.67Y-5.01
X3.67Y-5.11
X3.75Y-2.74
X3.75Y-2.84
X3.75Y-2.94
X3.75Y-3.04
X3.77Y-4.81
X3.77Y-4.91
X3.77Y-5.01
X3.77Y-5.11
X3.85Y-2.74
X3.85Y-2.84
X3.85Y-2.94
X3.85Y-3.04
X3.87Y-4.81
X3.87Y-4.91
X3.87Y-5.01
X3.87Y-5.11
X3.95Y-2.74
X3.95Y-2.84
X3.95Y-2.94
X3.95Y-3.04
X3.97Y-4.81
X3.97Y-4.91
X3.97Y-5.01
X3.97Y-5.11
X4.05Y-2.74
X4.05Y-2.84
X4.05Y-2.94
X4.05Y-3.04
X4.065Y-4.51
X4.07Y-4.81
X4.07Y-4.91
X4.07Y-5.01
X4.07Y-5.11
X4.125Y-4.11
X4.125Y-4.26
X4.135Y-4.385
X4.15Y-2.74
X4.15Y-2.84
X4.15Y-2.94
X4.15Y-3.04
X4.17Y-4.81
X4.17Y-4.91
X4.17Y-5.01
X4.17Y-5.11
X4.236Y-4.411
X4.25Y-2.74
X4.25Y-2.84
X4.25Y-2.94
X4.25Y-3.04
X4.27Y-4.81
X4.27Y-4.91
X4.27Y-5.01
X4.27Y-5.11
X4.295Y-3.275
X4.332Y-4.21
X4.35Y-2.74
X4.35Y-2.84
X4.35Y-2.94
X4.35Y-3.04
X4.37Y-4.81
X4.37Y-4.91
X4.37Y-5.01
X4.37Y-5.11
X4.395Y-4.26
X4.45Y-2.74
X4.45Y-2.84
X4.45Y-2.94
X4.45Y-3.04
X4.47Y-4.81
X4.47Y-4.91
X4.47Y-5.01
X4.47Y-5.11
X4.515Y-3.375
X4.55Y-2.74
X4.55Y-2.84
X4.55Y-2.94
X4.55Y-3.04
X4.57Y-4.81
X4.57Y-4.91
X4.57Y-5.01
X4.57Y-5.11
X4.625Y-4.12
X4.625Y-4.51
X4.65Y-2.74
X4.65Y-2.84
X4.65Y-2.94
X4.65Y-3.04
X4.67Y-4.81
X4.67Y-4.91
X4.67Y-5.01
X4.67Y-5.11
X4.75Y-2.74
X4.75Y-2.84
X4.75Y-2.94
X4.75Y-3.04
X4.775Y-3.545
X4.85Y-2.74
X4.85Y-2.84
X4.85Y-2.94
X4.85Y-3.04
X4.875Y-3.545
X4.885Y-4.12
X4.95Y-2.74
X4.95Y-2.84
X4.95Y-2.94
X4.95Y-3.04
X4.95Y-3.84
X5.01Y-3.97
X5.05Y-2.74
X5.05Y-2.84
X5.05Y-2.94
X5.05Y-3.04
X5.075Y-3.395
X5.075Y-3.695
X5.15Y-2.74
X5.15Y-2.84
X5.15Y-2.94
X5.15Y-3.04
X6.6083Y-2.98
X6.6083Y-3.0472
X6.6083Y-3.1145
X6.6083Y-3.1817
X6.6083Y-3.405
X6.6083Y-3.4722
X6.6083Y-3.5395
X6.6083Y-3.6067
X6.6083Y-3.83
X6.6083Y-3.8972
X6.6083Y-3.9645
X6.6083Y-4.0317
X6.6083Y-4.255
X6.6083Y-4.3222
X6.6083Y-4.3895
X6.6083Y-4.4567
X6.6755Y-2.98
X6.6755Y-3.0472
X6.6755Y-3.1145
X6.6755Y-3.1817
X6.6755Y-3.405
X6.6755Y-3.4722
X6.6755Y-3.5395
X6.6755Y-3.6067
X6.6755Y-3.83
X6.6755Y-3.8972
X6.6755Y-3.9645
X6.6755Y-4.0317
X6.6755Y-4.255
X6.6755Y-4.3222
X6.6755Y-4.3895
X6.6755Y-4.4567
X6.7428Y-2.98
X6.7428Y-3.0472
X6.7428Y-3.1145
X6.7428Y-3.1817
X6.7428Y-3.405
X6.7428Y-3.4722
X6.7428Y-3.5395
X6.7428Y-3.6067
X6.7428Y-3.83
X6.7428Y-3.8972
X6.7428Y-3.9645
X6.7428Y-4.0317
X6.7428Y-4.255
X6.7428Y-4.3222
X6.7428Y-4.3895
X6.7428Y-4.4567
X6.81Y-2.98
X6.81Y-3.0472
X6.81Y-3.1145
X6.81Y-3.1817
X6.81Y-3.405
X6.81Y-3.4722
X6.81Y-3.5395
X6.81Y-3.6067
X6.81Y-3.83
X6.81Y-3.8972
X6.81Y-3.9645
X6.81Y-4.0317
X6.81Y-4.255
X6.81Y-4.3222
X6.81Y-4.3895
X6.81Y-4.4567
X7.04Y-2.75
X7.04Y-2.85
X7.04Y-2.95
X7.04Y-3.05
X7.14Y-2.75
X7.14Y-2.85
X7.14Y-2.95
X7.14Y-3.05
X7.24Y-2.75
X7.24Y-2.85
X7.24Y-2.95
X7.24Y-3.05
X7.34Y-2.75
X7.34Y-2.85
X7.34Y-2.95
X7.34Y-3.05
X7.44Y-2.75
X7.44Y-2.85
X7.44Y-2.95
X7.44Y-3.05
X7.54Y-2.75
X7.54Y-2.85
X7.54Y-2.95
X7.54Y-3.05
X7.62Y-4.62
X7.62Y-4.72
X7.62Y-4.82
X7.62Y-4.92
X7.62Y-5.02
X7.62Y-5.12
X7.64Y-2.75
X7.64Y-2.85
X7.64Y-2.95
X7.64Y-3.05
X7.72Y-4.62
X7.72Y-4.72
X7.72Y-4.82
X7.72Y-4.92
X7.72Y-5.02
X7.72Y-5.12
X7.74Y-2.75
X7.74Y-2.85
X7.74Y-2.95
X7.74Y-3.05
X7.82Y-4.62
X7.82Y-4.72
X7.82Y-4.82
X7.82Y-4.92
X7.82Y-5.02
X7.82Y-5.12
X7.83Y-3.525
X7.83Y-3.625
X7.83Y-3.725
X7.83Y-3.825
X7.83Y-3.925
X7.83Y-4.025
X7.83Y-4.125
X7.84Y-2.75
X7.84Y-2.85
X7.84Y-2.95
X7.84Y-3.05
X7.92Y-4.62
X7.92Y-4.72
X7.92Y-4.82
X7.92Y-4.92
X7.92Y-5.02
X7.92Y-5.12
X7.93Y-3.525
X7.93Y-3.625
X7.93Y-3.725
X7.93Y-3.825
X7.93Y-3.925
X7.93Y-4.025
X7.93Y-4.125
X7.94Y-2.75
X7.94Y-2.85
X7.94Y-2.95
X7.94Y-3.05
X8.02Y-4.62
X8.02Y-4.72
X8.02Y-4.82
X8.02Y-4.92
X8.02Y-5.02
X8.02Y-5.12
X8.03Y-3.525
X8.03Y-3.625
X8.03Y-3.725
X8.03Y-3.825
X8.03Y-3.925
X8.03Y-4.025
X8.03Y-4.125
X8.04Y-2.75
X8.04Y-2.85
X8.04Y-2.95
X8.04Y-3.05
X8.12Y-4.62
X8.12Y-4.72
X8.12Y-4.82
X8.12Y-4.92
X8.12Y-5.02
X8.12Y-5.12
X8.13Y-3.525
X8.13Y-3.625
X8.13Y-3.725
X8.13Y-3.825
X8.13Y-3.925
X8.13Y-4.025
X8.13Y-4.125
X8.14Y-2.75
X8.14Y-2.85
X8.14Y-2.95
X8.14Y-3.05
X8.22Y-4.62
X8.22Y-4.72
X8.22Y-4.82
X8.22Y-4.92
X8.22Y-5.02
X8.22Y-5.12
X8.23Y-3.525
X8.23Y-3.625
X8.23Y-3.725
X8.23Y-3.825
X8.23Y-3.925
X8.23Y-4.025
X8.23Y-4.125
X8.24Y-2.75
X8.24Y-2.85
X8.24Y-2.95
X8.24Y-3.05
X8.32Y-4.62
X8.32Y-4.72
X8.32Y-4.82
X8.32Y-4.92
X8.32Y-5.02
X8.32Y-5.12
X8.33Y-3.525
X8.33Y-3.625
X8.33Y-3.725
X8.33Y-3.825
X8.33Y-3.925
X8.33Y-4.025
X8.33Y-4.125
X8.34Y-2.75
X8.34Y-2.85
X8.34Y-2.95
X8.34Y-3.05
X8.42Y-4.62
X8.42Y-4.72
X8.42Y-4.82
X8.42Y-4.92
X8.42Y-5.02
X8.42Y-5.12
X8.43Y-3.525
X8.43Y-3.625
X8.43Y-3.725
X8.43Y-3.825
X8.43Y-3.925
X8.43Y-4.025
X8.43Y-4.125
X8.44Y-2.75
X8.44Y-2.85
X8.44Y-2.95
X8.44Y-3.05
X8.52Y-4.62
X8.52Y-4.72
X8.52Y-4.82
X8.52Y-4.92
X8.52Y-5.02
X8.52Y-5.12
X8.53Y-3.625
X8.53Y-3.725
X8.53Y-3.825
X8.53Y-3.925
X8.53Y-4.025
X8.54Y-2.75
X8.54Y-2.85
X8.54Y-2.95
X8.54Y-3.05
X8.62Y-4.62
X8.62Y-4.72
X8.62Y-4.82
X8.62Y-4.92
X8.62Y-5.02
X8.62Y-5.12
X8.63Y-3.525
X8.63Y-3.625
X8.63Y-3.725
X8.63Y-3.825
X8.63Y-3.925
X8.63Y-4.025
X8.63Y-4.125
X8.64Y-2.75
X8.64Y-2.85
X8.64Y-2.95
X8.64Y-3.05
X8.72Y-4.62
X8.72Y-4.72
X8.72Y-4.82
X8.72Y-4.92
X8.72Y-5.02
X8.72Y-5.12
X8.73Y-3.525
X8.73Y-3.625
X8.73Y-3.725
X8.73Y-3.825
X8.73Y-3.925
X8.73Y-4.025
X8.73Y-4.125
X8.74Y-2.75
X8.74Y-2.85
X8.74Y-2.95
X8.74Y-3.05
X8.82Y-4.62
X8.82Y-4.72
X8.82Y-4.82
X8.82Y-4.92
X8.82Y-5.02
X8.82Y-5.12
X8.83Y-3.525
X8.83Y-3.625
X8.83Y-3.725
X8.83Y-3.825
X8.83Y-3.925
X8.83Y-4.025
X8.83Y-4.125
X8.84Y-2.75
X8.84Y-2.85
X8.84Y-2.95
X8.84Y-3.05
X8.92Y-4.62
X8.92Y-4.72
X8.92Y-4.82
X8.92Y-4.92
X8.92Y-5.02
X8.92Y-5.12
X8.93Y-3.525
X8.93Y-3.625
X8.93Y-3.725
X8.93Y-3.825
X8.93Y-3.925
X8.93Y-4.025
X8.93Y-4.125
X8.94Y-2.75
X8.94Y-2.85
X8.94Y-2.95
X8.94Y-3.05
X9.02Y-4.62
X9.02Y-4.72
X9.02Y-4.82
X9.02Y-4.92
X9.02Y-5.02
X9.02Y-5.12
X9.03Y-3.525
X9.03Y-3.625
X9.03Y-3.725
X9.03Y-3.825
X9.03Y-3.925
X9.03Y-4.025
X9.03Y-4.125
X9.04Y-2.75
X9.04Y-2.85
X9.04Y-2.95
X9.04Y-3.05
X9.12Y-4.62
X9.12Y-4.72
X9.12Y-4.82
X9.12Y-4.92
X9.12Y-5.02
X9.12Y-5.12
X9.13Y-3.525
X9.13Y-3.625
X9.13Y-3.725
X9.13Y-3.825
X9.13Y-3.925
X9.13Y-4.025
X9.13Y-4.125
X9.14Y-2.75
X9.14Y-2.85
X9.14Y-2.95
X9.14Y-3.05
X9.23Y-3.525
X9.23Y-3.625
X9.23Y-3.725
X9.23Y-3.825
X9.23Y-3.925
X9.23Y-4.025
X9.23Y-4.125
X9.33Y-3.525
X9.33Y-3.625
X9.33Y-3.725
X9.33Y-3.825
X9.33Y-3.925
X9.33Y-4.025
X9.33Y-4.125
X9.43Y-3.525
X9.43Y-3.625
X9.43Y-3.725
X9.43Y-3.825
X9.43Y-3.925
X9.43Y-4.025
X9.43Y-4.125
X9.53Y-3.525
X9.53Y-3.625
X9.53Y-3.725
X9.53Y-3.825
X9.53Y-3.925
X9.53Y-4.025
X9.53Y-4.125
X9.63Y-3.525
X9.63Y-3.625
X9.63Y-3.725
X9.63Y-3.825
X9.63Y-3.925
X9.63Y-4.025
X9.63Y-4.125
X9.73Y-3.525
X9.73Y-3.625
X9.73Y-3.725
X9.73Y-3.825
X9.73Y-3.925
X9.73Y-4.025
X9.73Y-4.125
X9.83Y-3.525
X9.83Y-3.625
X9.83Y-3.725
X9.83Y-3.825
X9.83Y-3.925
X9.83Y-4.025
X9.83Y-4.125
X9.93Y-3.525
X9.93Y-3.625
X9.93Y-3.725
X9.93Y-3.825
X9.93Y-3.925
X9.93Y-4.025
X9.93Y-4.125
X10.03Y-3.525
X10.03Y-3.625
X10.03Y-3.725
X10.03Y-3.825
X10.03Y-3.925
X10.03Y-4.025
X10.03Y-4.125
T2
X3.3914Y-3.015
X3.3914Y-3.54
X3.4174Y-2.9524
X3.4174Y-3.0776
X3.4174Y-3.4774
X3.4174Y-3.6026
X3.48Y-2.9264
X3.48Y-3.1036
X3.48Y-3.4514
X3.48Y-3.6286
X3.5426Y-2.9524
X3.5426Y-3.0776
X3.5426Y-3.4774
X3.5426Y-3.6026
X3.5686Y-3.015
X3.5686Y-3.54
X3.86Y-3.85
X3.86Y-4.645
X3.97Y-3.225
X4.58Y-4.645
X4.745Y-4.81
X4.775Y-3.8
X4.825Y-3.32
X5.11Y-4.81
X5.295Y-3.325
X5.295Y-3.765
X5.5825Y-3.6375
X5.5825Y-4.21
X5.91Y-3.12
X5.91Y-3.7075
X6.2914Y-4.885
X6.3174Y-4.8224
X6.3174Y-4.9476
X6.38Y-4.7964
X6.38Y-4.9736
X6.4426Y-4.8224
X6.4426Y-4.9476
X6.4686Y-4.885
X7.125Y-3.48
X7.125Y-4.205
X7.3114Y-4.89
X7.3374Y-4.8274
X7.3374Y-4.9526
X7.4Y-4.8014
X7.4Y-4.9786
X7.4626Y-4.8274
X7.4626Y-4.9526
X7.4886Y-4.89
X8.525Y-4.475
X8.53Y-3.21
X9.8164Y-2.9889
X9.8164Y-4.7189
X9.8424Y-2.9262
X9.8424Y-3.0515
X9.8424Y-4.6562
X9.8424Y-4.7815
X9.905Y-2.9003
X9.905Y-3.0774
X9.905Y-4.6303
X9.905Y-4.8074
X9.9676Y-2.9262
X9.9676Y-3.0515
X9.9676Y-4.6562
X9.9676Y-4.7815
X9.9936Y-2.9889
X9.9936Y-4.7189
T3
X5.49Y-3.62
X5.49Y-4.2
T4
X4.04Y-3.575
X4.14Y-3.475
X4.24Y-3.575
X4.26Y-4.545
X4.36Y-4.645
X4.405Y-3.575
X4.46Y-4.545
X4.505Y-3.475
X4.605Y-3.575
T5
X5.805Y-4.425
X5.805Y-4.6219
T6
X7.69Y-3.23
X7.69Y-3.74
X7.69Y-3.95
X7.69Y-4.46
T7
X5.475Y-3.165
X5.475Y-3.74
X5.775Y-3.165
X5.775Y-3.74
X6.085Y-2.98
X6.085Y-3.08
X6.085Y-3.18
X6.085Y-3.405
X6.085Y-3.505
X6.085Y-3.605
X6.085Y-3.83
X6.085Y-3.93
X6.085Y-4.03
X6.085Y-4.255
X6.085Y-4.355
X6.085Y-4.455
T8
X9.37Y-3.2973
X9.37Y-4.38
T9
X3.48Y-3.015
X3.48Y-3.54
X6.38Y-4.885
X7.4Y-4.89
X9.905Y-2.9877
X9.905Y-4.72
T10
X5.5843Y-2.8522
X5.5843Y-5.0176
X9.3245Y-2.8522
X9.3245Y-5.0176
T5
G00X3.47Y-4.5636
M15
G01X3.47Y-4.5164
M16
G05
G00X3.5684Y-3.977
M15
G01X3.5684Y-3.9298
M16
G05
G00X6.8306Y-4.66
M15
G01X6.9094Y-4.66
M16
G05
G00X6.8306Y-4.8962
M15
G01X6.9094Y-4.8962
M16
G05
G00X7.055Y-4.8175
M15
G01X7.055Y-4.7387
M16
G05
T0
M30
